<?xml version="1.0" encoding="utf-8"?>
<!DOCTYPE svg PUBLIC "-//W3C//DTD SVG 1.1//EN" "http://www.w3.org/Graphics/SVG/1.1/DTD/svg11.dtd">
<svg
xmlns="http://www.w3.org/2000/svg"
viewBox="0 0 220 140"
width="100%"
height="auto"
preserveAspectRatio="xMidYMid meet"
>
<!--  <defs>-->
<!--    <linearGradient id="mintGradient" x1="0%" y1="0%" x2="0%" y2="100%">-->
<!--      <stop offset="0%" stop-color="#8fe0c1"/>-->
<!--      <stop offset="55%" stop-color="#5fd1c8"/>-->
<!--      <stop offset="100%" stop-color="#4fc0d6"/>-->
<!--    </linearGradient>-->
<!--  </defs>-->
  <defs>
    <linearGradient id="mintGradient" x1="0%" y1="0%" x2="0%" y2="100%">
      <stop offset="0%" stop-color="#e1f4ee"/>
      <stop offset="55%" stop-color="#cdeee8"/>
      <stop offset="100%" stop-color="#bfe7ea"/>
    </linearGradient>
  </defs>
<path d="M0.286 67.38C9.765 83.276 45.992 93.17 88.886 94.99V106.615L78.644 113.19C72.132 117.304 65.525 122.091 59.109 128.219C56.142 131.094 55.761 135.304 62.078 135.976C74.43 137.222 85.728 138.18 98.08 138.18C110.525 138.18 121.73 137.222 134.176 135.976C140.496 135.304 140.11 131.094 137.145 128.219C127.282 118.839 117.134 112.422 106.984 107.06V94.752C125.202 94.307 178.116 87.894 197.17 67.758C198.03 66.852 197.676 65.511 197.676 64.922C197.676 59.784 153.421 55.62 98.826 55.62C44.236 55.62 0 59.784 0 64.922" fill="url(#mintGradient)"/>
<path d="M197.676 63.813C197.676 68.949 153.421 73.115 98.826 73.115C44.234 73.115 0 68.949 0 63.813C0 58.674 44.234 54.51 98.826 54.51C153.421 54.51 197.676 58.674 197.676 63.813" fill="url(#mintGradient)"/>
<path d="M197.676 66.031C197.676 71.167 153.421 75.334 98.826 75.334C44.234 75.334 0 71.167 0 66.031C0 60.893 44.234 56.729 98.826 56.729C153.421 56.729 197.676 60.893 197.676 66.031" fill="url(#mintGradient)" stroke="#fff" stroke-width="1.333"/>
<path d="M197.676 63.813C197.676 68.949 153.421 73.115 98.826 73.115C44.234 73.115 0 68.949 0 63.813C0 58.674 44.234 54.51 98.826 54.51C153.421 54.51 197.676 58.674 197.676 63.813Z" fill="none" stroke="#fff" stroke-width="1.333"/>
<path d="M159.733 58.044C158.03 41.958 159.621 19.282 216.96 19.2C198.662 27.92 201.43 38.084 190.228 49.73C177.558 62.896 159.733 58.044 159.733 58.044" fill="url(#mintGradient)" stroke="#fff" stroke-width="1.333"/>
<path d="M151.48 43.489C157.442 33.213 163.166 17.532 124.746 0.3C134.402 11.628 129.499 17.613 133.522 28.778C138.074 41.401 151.48 43.489 151.48 43.489" fill="url(#mintGradient)" stroke="#fff" stroke-width="1.333"/>
<path d="M138.126 104.602C147.285 109.678 166.714 118.844 175.968 116.224C185.22 113.607 193.465 110.23 197.881 112.58C179.408 89.568 149.536 90.844 138.126 104.602" fill="url(#mintGradient)" stroke="#fff" stroke-width="1.333"/>
<path d="M156.48 55.651C149.988 48.218 135.374 31.007 105.89 41.661C119.04 45.674 118.8 58.791 133.191 61.667C147.579 64.539 156.48 55.651 156.48 55.651" fill="url(#mintGradient)" stroke="#fff" stroke-width="1.333"/>
<path d="M160.462 57.979C167.902 73.253 163.085 85.739 145.727 96.151C137.757 100.935 131.205 103.263 124.269 105.73C119.295 107.498 114.153 109.326 107.819 112.222L106.71 109.797C113.15 106.851 118.35 105.003 123.378 103.217C130.478 100.693 136.61 98.51 144.355 93.865C160.522 84.165 164.879 73.133 158.066 59.147L150.098 43.509L152.319 43.175L160.462 57.979Z" fill="url(#mintGradient)"/>
<path d="M114.316 105.865C116.431 105.81 146.455 100.383 141.676 68.226C136.83 77.091 132.071 78.341 125.822 82.026C119.574 85.711 111.171 93.261 114.316 105.865" fill="url(#mintGradient)" stroke="#fff" stroke-width="1.333"/>
</svg>
